<?xml version="1.0" encoding="UTF-8"?>
<svg id="Layer_1" data-name="Layer 1" xmlns="http://www.w3.org/2000/svg" viewBox="0 0 277.45 32.31">
  <defs>
    <style>
      .cls-1 {
        fill: #fff;
      }
    </style>
  </defs>
  <path class="cls-1" d="M2.16,16.8c.02.43.1.84.23,1.25.14.41.35.76.64,1.07.29.31.68.55,1.16.73.48.18,1.08.27,1.8.27.83,0,1.52-.11,2.07-.34.55-.22.98-.52,1.3-.9.32-.38.54-.8.67-1.28.13-.48.2-.97.2-1.48v-7.45c0-.56-.18-.97-.55-1.21-.36-.24-1.1-.37-2.2-.37V1.3h14.52v5.8c-.92,0-1.57.12-1.96.37-.39.25-.59.71-.59,1.4v7.23c0,.9-.14,1.87-.42,2.91-.28,1.04-.79,2-1.54,2.88-.75.88-1.77,1.61-3.07,2.2-1.3.59-2.97.88-5.02.88-1.93,0-3.5-.27-4.73-.8-1.22-.53-2.18-1.19-2.86-1.97-.68-.78-1.15-1.6-1.41-2.47-.26-.86-.39-1.61-.39-2.25,0-.92.14-1.73.41-2.44.27-.71.62-1.3,1.05-1.77.43-.47.92-.82,1.48-1.05s1.15-.35,1.77-.35c.73,0,1.35.11,1.86.32.51.21.93.5,1.27.85.33.35.58.76.73,1.2.15.45.23.91.23,1.38,0,.51-.09.98-.26,1.41-.17.43-.4.79-.69,1.1-.29.31-.63.55-1.04.73-.41.18-.83.27-1.28.27-.54,0-1-.07-1.37-.2-.37-.13-.68-.31-.94-.54-.26-.22-.47-.48-.64-.76s-.31-.56-.41-.83Z"/>
  <path class="cls-1" d="M31.61,9.27c-.53,0-.99.04-1.37.12-.38.08-.71.17-.98.27-.27.1-.5.22-.67.35-.18.13-.33.25-.47.35l.16.16c.2-.1.41-.21.65-.31.23-.1.53-.16.9-.16.61,0,1.15.2,1.59.6.45.4.67,1.04.67,1.91s-.34,1.5-1.02,2.01c-.68.51-1.6.76-2.74.76s-1.97-.31-2.62-.95c-.65-.63-.98-1.52-.98-2.68,0-.64.18-1.27.53-1.9.35-.63.9-1.2,1.65-1.7.74-.5,1.69-.91,2.84-1.23,1.15-.32,2.54-.48,4.16-.48,1.94,0,3.52.18,4.75.55,1.23.36,2.18.83,2.87,1.41.68.57,1.15,1.22,1.41,1.95.25.73.38,1.46.38,2.2v6.11c0,.95.03,1.59.09,1.93.06.34.3.51.7.51.32,0,.55-.15.68-.46.13-.31.2-.84.2-1.59v-1.95h1.78v1.98c0,.94-.08,1.77-.23,2.49-.16.72-.45,1.34-.89,1.86s-1.03.91-1.78,1.17-1.71.4-2.88.4c-1.05,0-1.92-.11-2.62-.34-.69-.22-1.24-.5-1.65-.84-.41-.33-.7-.68-.87-1.04s-.26-.68-.26-.96h-.25c-.06.43-.24.83-.54,1.22-.3.39-.71.73-1.23,1.02-.53.3-1.16.54-1.89.72s-1.57.27-2.51.27-1.71-.09-2.45-.26-1.36-.44-1.88-.81c-.52-.37-.92-.85-1.2-1.44-.29-.59-.43-1.29-.43-2.1,0-1,.28-1.79.84-2.37s1.27-1.04,2.12-1.37c.85-.34,1.78-.61,2.79-.83,1-.21,1.93-.47,2.79-.77.85-.3,1.56-.69,2.12-1.17.56-.48.84-1.16.84-2.03,0-.78-.25-1.41-.73-1.88-.49-.47-1.29-.71-2.41-.71ZM34.75,16.03c-.23.33-.52.6-.86.8s-.67.4-.99.59c-.32.19-.59.42-.83.69s-.35.62-.35,1.07c0,.34.09.65.28.93.19.28.55.41,1.09.41.49,0,.89-.19,1.2-.57.31-.38.46-.91.46-1.6v-2.33Z"/>
  <path class="cls-1" d="M58.84,10.61c-.9,0-1.58.38-2.06,1.14-.48.76-.72,2.03-.72,3.8s.25,3.03.74,3.77c.49.75,1.25,1.12,2.27,1.12.29,0,.59-.05.89-.14.3-.09.58-.23.82-.41.24-.18.45-.42.61-.7.16-.29.25-.62.27-1.01h5.05c-.33,2.32-1.27,4.04-2.8,5.15-1.54,1.11-3.73,1.66-6.57,1.66-1.43,0-2.76-.19-4-.56-1.24-.38-2.32-.95-3.23-1.71-.92-.77-1.64-1.73-2.16-2.89-.52-1.16-.78-2.54-.78-4.15s.26-2.87.78-4.03c.52-1.16,1.25-2.12,2.2-2.9.94-.78,2.06-1.36,3.34-1.76,1.29-.4,2.7-.59,4.24-.59,1.64,0,3.02.2,4.14.61s2.03.91,2.73,1.52c.69.61,1.19,1.27,1.48,1.97s.45,1.36.45,1.98c0,.49-.07.97-.21,1.44s-.37.9-.69,1.28c-.32.39-.72.7-1.21.93-.49.23-1.09.35-1.8.35s-1.23-.1-1.66-.29c-.43-.19-.76-.43-.99-.72-.23-.29-.4-.59-.5-.91-.1-.32-.15-.62-.15-.9,0-.63.15-1.14.45-1.52.3-.38.65-.64,1.05-.78-.23-.18-.46-.35-.7-.51-.23-.16-.66-.24-1.29-.24Z"/>
  <path class="cls-1" d="M79.64,1.3v13.45l2.11-1.03c.36-.17.6-.31.71-.43.11-.12.16-.23.16-.34,0-.26-.28-.39-.83-.39h-.72v-5.47h11.88v5.47h-.95c-.57,0-1.16.03-1.76.1-.6.07-1.15.22-1.66.44l-.7.36,3.67,3.94c.45.49.87.8,1.27.92.4.12.97.19,1.72.19v5.8h-13.55v-5.8h.81c.38,0,.63-.05.76-.16.13-.1.2-.24.2-.42,0-.12-.09-.29-.26-.51-.17-.21-.49-.53-.96-.96l-1.89.94v6.91h-10.91v-5.8h.61c.55,0,.96-.17,1.23-.52.27-.35.4-.73.4-1.13v-8c0-.6-.19-1.05-.57-1.34-.38-.29-.82-.43-1.32-.43h-.34V1.3h10.91Z"/>
  <path class="cls-1" d="M126.39,9.66h-5.16c-.08-.53-.27-1.03-.55-1.48-.29-.46-.64-.85-1.05-1.19-.42-.33-.88-.59-1.39-.77-.51-.18-1.04-.27-1.58-.27-.66,0-1.19.12-1.59.38s-.61.6-.61,1.05.18.77.55,1.04c.36.27.84.5,1.44.69.59.19,1.27.38,2.03.55.76.18,1.53.4,2.32.66.79.26,1.56.58,2.32.95.76.37,1.44.84,2.03,1.42.59.58,1.07,1.28,1.44,2.12.36.83.55,1.83.55,3,0,1.24-.27,2.3-.8,3.17s-1.25,1.59-2.14,2.16c-.9.56-1.93.97-3.09,1.23-1.17.26-2.38.39-3.62.39s-2.38-.14-3.49-.42-2.24-.74-3.4-1.38v1.38h-5.16v-8.52h5.16c.3,1.22.91,2.18,1.81,2.88s1.93,1.05,3.06,1.05c.76,0,1.33-.14,1.7-.43.38-.29.56-.61.56-.98,0-.57-.31-1.02-.93-1.33-.62-.31-1.39-.59-2.3-.84-.92-.24-1.92-.52-3.01-.83-1.09-.31-2.09-.75-3.01-1.33-.92-.58-1.69-1.34-2.3-2.29-.62-.95-.93-2.19-.93-3.72,0-1.14.24-2.14.73-3.02.49-.88,1.15-1.61,1.97-2.21.82-.6,1.77-1.05,2.85-1.36,1.08-.31,2.22-.46,3.41-.46,1.66,0,3.08.19,4.27.58,1.19.39,2.11.79,2.77,1.22v-1.45h5.16v8.36Z"/>
  <path class="cls-1" d="M140.11,7.09v9.73c0,.7.17,1.15.52,1.37.34.21.78.32,1.31.32h.42v5.8h-13.16v-5.8h.61c.55,0,.96-.17,1.23-.52.27-.35.4-.73.4-1.13v-2.2c0-.6-.19-1.05-.57-1.34-.38-.29-.82-.43-1.32-.43h-.34v-5.8h10.91ZM131.19,3.25c0-.9.34-1.66,1.02-2.3.68-.64,1.65-.95,2.91-.95s2.27.32,2.96.95c.69.64,1.04,1.4,1.04,2.3s-.35,1.69-1.04,2.32c-.69.63-1.68.95-2.96.95s-2.23-.31-2.91-.95c-.68-.63-1.02-1.4-1.02-2.32Z"/>
  <path class="cls-1" d="M166.61,16.98c0,.55.1.95.29,1.18.19.23.56.35,1.12.35h.52v5.8h-10.5v-9.98c0-.41-.04-.73-.12-.98-.08-.24-.2-.43-.34-.56-.14-.13-.3-.22-.48-.26-.18-.04-.36-.06-.52-.06-.69,0-1.16.2-1.41.59-.26.4-.38.96-.38,1.69v2.23c0,.55.1.95.29,1.18.19.23.56.35,1.12.35h.52v5.8h-12.73v-5.8h.92c.43,0,.75-.14.98-.41.22-.28.34-.61.34-.99v-2.97c0-.49-.14-.82-.43-.99-.29-.17-.61-.26-.98-.26h-.83v-5.8h9.28l-.33,4.3h.27c.23-1.6.88-2.84,1.95-3.7,1.07-.86,2.62-1.3,4.65-1.3.76,0,1.47.1,2.13.3.66.2,1.25.51,1.77.93.52.42.92.94,1.22,1.57.3.63.46,1.36.51,2.2h.22c.09-.79.32-1.5.7-2.13.37-.63.84-1.15,1.41-1.57.57-.42,1.19-.74,1.88-.96.68-.22,1.4-.34,2.15-.34,1.38,0,2.52.2,3.39.61s1.56.92,2.05,1.54c.49.62.82,1.29,1.01,2.02.18.72.27,1.4.27,2.04v4.39c0,.55.1.95.29,1.18.19.23.56.35,1.12.35h.83v5.8h-10.81v-9.98c0-.41-.04-.73-.13-.98-.09-.24-.2-.43-.34-.56-.14-.13-.29-.22-.48-.26-.18-.04-.36-.06-.52-.06-.69,0-1.16.2-1.41.59-.26.4-.38.96-.38,1.69v2.23Z"/>
  <path class="cls-1" d="M198.2,24.83c-.67,0-1.26-.03-1.78-.1-.52-.07-1-.16-1.42-.29-.43-.12-.83-.27-1.22-.45-.39-.17-.77-.35-1.16-.54v1.53c0,.55.1.95.29,1.18.19.23.57.35,1.13.35h.92v5.8h-13.16v-5.8h.94c.43,0,.75-.14.98-.41.22-.28.34-.61.34-.99v-10.97c0-.49-.15-.82-.44-.99-.29-.17-.62-.26-.98-.26h-.83v-5.8h10.14v3.2h.27c.38-1.08,1.07-1.98,2.05-2.69.98-.71,2.32-1.06,4.03-1.06,2.45,0,4.36.77,5.74,2.32,1.38,1.55,2.07,3.82,2.07,6.8s-.71,5.26-2.12,6.82c-1.41,1.56-3.34,2.34-5.79,2.34ZM197.2,15.83c0-.55-.03-1.08-.09-1.58s-.18-.94-.35-1.31c-.17-.37-.4-.67-.69-.88-.29-.21-.66-.32-1.13-.32s-.85.1-1.16.3c-.3.2-.54.48-.7.84-.17.35-.28.78-.35,1.27-.07.49-.1,1.01-.1,1.56v3.84c.18.27.5.49.98.65.48.16.92.24,1.33.24.47,0,.85-.13,1.13-.4.29-.27.52-.62.69-1.05s.29-.93.35-1.48c.06-.55.09-1.11.09-1.67Z"/>
  <path class="cls-1" d="M225.77,12.8h-4.3c-.3-.75-.77-1.34-1.41-1.78-.64-.44-1.3-.66-1.98-.66-.47,0-.84.09-1.12.26-.28.17-.41.43-.41.77,0,.43.24.75.72.96.48.21,1.08.4,1.8.57.72.17,1.51.37,2.35.6s1.63.57,2.35,1.01c.72.44,1.33,1.03,1.8,1.77.48.74.72,1.71.72,2.92,0,.94-.21,1.76-.62,2.45-.42.7-.99,1.27-1.71,1.72-.72.45-1.58.78-2.55,1.01-.98.22-2.04.34-3.17.34s-2.15-.11-3.13-.32c-.98-.21-1.92-.58-2.82-1.09l-.16,1.08h-4.12v-6.27h4.28c.41.83.92,1.48,1.54,1.94.62.46,1.3.69,2.05.69.57,0,.98-.11,1.23-.32.24-.21.37-.45.37-.71,0-.43-.24-.76-.72-.99-.48-.23-1.07-.44-1.77-.62-.7-.18-1.48-.38-2.32-.61-.84-.22-1.62-.55-2.32-.98-.7-.43-1.29-1-1.77-1.73-.48-.72-.72-1.67-.72-2.85,0-.84.19-1.61.57-2.31.38-.7.92-1.29,1.63-1.77.71-.48,1.54-.85,2.5-1.1.96-.25,2.01-.38,3.16-.38,1.28,0,2.43.14,3.46.43,1.03.29,1.79.6,2.3.95l.16-1.11h4.14v6.14Z"/>
  <path class="cls-1" d="M227.78,15.67c0-1.53.27-2.87.8-4.03s1.29-2.12,2.27-2.9c.98-.78,2.17-1.36,3.55-1.76,1.38-.4,2.93-.59,4.64-.59s3.25.2,4.64.59c1.38.4,2.57.98,3.55,1.76.98.78,1.74,1.74,2.27,2.9.54,1.16.8,2.5.8,4.03s-.27,2.85-.8,4.02c-.54,1.17-1.29,2.14-2.27,2.93-.98.79-2.16,1.38-3.55,1.77-1.39.4-2.93.59-4.64.59s-3.26-.2-4.64-.59c-1.39-.4-2.57-.99-3.55-1.77-.98-.79-1.74-1.76-2.27-2.93-.53-1.17-.8-2.5-.8-4.02ZM236.67,15.67c0,.88.04,1.62.12,2.23s.21,1.1.38,1.47c.18.37.42.64.72.81.3.17.69.26,1.16.26s.85-.09,1.15-.26.54-.44.72-.81c.18-.37.31-.86.38-1.47.07-.61.11-1.35.11-2.23,0-1.75-.16-2.98-.49-3.68s-.95-1.05-1.87-1.05c-.47,0-.85.08-1.16.24-.3.16-.54.43-.72.8-.18.37-.3.86-.38,1.47-.08.61-.12,1.35-.12,2.23Z"/>
  <path class="cls-1" d="M266.64,14.33c0-.41-.05-.73-.15-.98-.1-.24-.22-.43-.38-.56-.15-.13-.32-.22-.51-.26-.19-.04-.37-.06-.55-.06-.68,0-1.18.2-1.52.59-.33.4-.5.96-.5,1.69v2.23c0,.55.1.95.29,1.18.19.23.56.35,1.12.35h.84v5.8h-13.06v-5.8h.92c.43,0,.75-.14.98-.41.22-.28.34-.61.34-.99v-2.97c0-.49-.14-.82-.43-.99-.29-.17-.61-.26-.98-.26h-.83v-5.8h9.28l-.33,4.3h.27c.23-1.6.93-2.84,2.11-3.7,1.18-.86,2.78-1.3,4.8-1.3,1.43,0,2.59.2,3.48.61.9.41,1.59.92,2.09,1.54.49.62.83,1.29,1.01,2.02.18.72.27,1.4.27,2.04v4.39c0,.55.1.95.29,1.18.19.23.56.35,1.12.35h.84v5.8h-10.81v-9.98Z"/>
</svg>